<?xml version="1.0" standalone="no"?><svg xmlns="http://www.w3.org/2000/svg" viewBox="0 0 1440 320"><path fill="#0099ff" fill-opacity="1" d="M0,192L26.7,208C53.3,224,107,256,160,256C213.3,256,267,224,320,229.3C373.3,235,427,277,480,272C533.3,267,587,213,640,192C693.3,171,747,181,800,181.3C853.3,181,907,171,960,181.3C1013.3,192,1067,224,1120,208C1173.3,192,1227,128,1280,101.3C1333.3,75,1387,85,1413,90.7L1440,96L1440,320L1413.3,320C1386.7,320,1333,320,1280,320C1226.7,320,1173,320,1120,320C1066.7,320,1013,320,960,320C906.7,320,853,320,800,320C746.7,320,693,320,640,320C586.7,320,533,320,480,320C426.7,320,373,320,320,320C266.7,320,213,320,160,320C106.7,320,53,320,27,320L0,320Z"></path></svg>