<?xml version="1.0" standalone="no"?><svg xmlns="http://www.w3.org/2000/svg" viewBox="0 0 1440 320"><path fill="#0099ff" fill-opacity="1" d="M0,160L26.7,160C53.3,160,107,160,160,176C213.3,192,267,224,320,224C373.3,224,427,192,480,186.7C533.3,181,587,203,640,213.3C693.3,224,747,224,800,224C853.3,224,907,224,960,197.3C1013.3,171,1067,117,1120,96C1173.3,75,1227,85,1280,112C1333.3,139,1387,181,1413,202.7L1440,224L1440,320L1413.3,320C1386.7,320,1333,320,1280,320C1226.7,320,1173,320,1120,320C1066.7,320,1013,320,960,320C906.7,320,853,320,800,320C746.7,320,693,320,640,320C586.7,320,533,320,480,320C426.7,320,373,320,320,320C266.7,320,213,320,160,320C106.7,320,53,320,27,320L0,320Z"></path></svg>