<?xml version="1.0" standalone="no"?>
<svg xmlns:xlink="http://www.w3.org/1999/xlink" id="wave" style="transform:rotate(0deg); transition: 0.3s" viewBox="0 0 1440 490" version="1.1" xmlns="http://www.w3.org/2000/svg"><defs><linearGradient id="sw-gradient-0" x1="0" x2="0" y1="1" y2="0"><stop stop-color="rgba(243, 106, 62, 1)" offset="0%"/><stop stop-color="rgba(255, 179, 11, 1)" offset="100%"/></linearGradient></defs><path style="transform:translate(0, 0px); opacity:1" fill="url(#sw-gradient-0)" d="M0,294L26.7,310.3C53.3,327,107,359,160,375.7C213.3,392,267,392,320,343C373.3,294,427,196,480,179.7C533.3,163,587,229,640,277.7C693.3,327,747,359,800,343C853.3,327,907,261,960,253.2C1013.3,245,1067,294,1120,302.2C1173.3,310,1227,278,1280,277.7C1333.3,278,1387,310,1440,277.7C1493.3,245,1547,147,1600,147C1653.3,147,1707,245,1760,236.8C1813.3,229,1867,114,1920,106.2C1973.3,98,2027,196,2080,196C2133.3,196,2187,98,2240,49C2293.3,0,2347,0,2400,40.8C2453.3,82,2507,163,2560,163.3C2613.3,163,2667,82,2720,81.7C2773.3,82,2827,163,2880,179.7C2933.3,196,2987,147,3040,130.7C3093.3,114,3147,131,3200,171.5C3253.3,212,3307,278,3360,326.7C3413.3,376,3467,408,3520,416.5C3573.3,425,3627,408,3680,408.3C3733.3,408,3787,425,3813,432.8L3840,441L3840,490L3813.3,490C3786.7,490,3733,490,3680,490C3626.7,490,3573,490,3520,490C3466.7,490,3413,490,3360,490C3306.7,490,3253,490,3200,490C3146.7,490,3093,490,3040,490C2986.7,490,2933,490,2880,490C2826.7,490,2773,490,2720,490C2666.7,490,2613,490,2560,490C2506.7,490,2453,490,2400,490C2346.7,490,2293,490,2240,490C2186.7,490,2133,490,2080,490C2026.7,490,1973,490,1920,490C1866.7,490,1813,490,1760,490C1706.7,490,1653,490,1600,490C1546.7,490,1493,490,1440,490C1386.7,490,1333,490,1280,490C1226.7,490,1173,490,1120,490C1066.7,490,1013,490,960,490C906.7,490,853,490,800,490C746.7,490,693,490,640,490C586.7,490,533,490,480,490C426.7,490,373,490,320,490C266.7,490,213,490,160,490C106.7,490,53,490,27,490L0,490Z"/></svg>